<svg id="Слой_1" data-name="Слой 1" xmlns="http://www.w3.org/2000/svg" viewBox="0 0 61 61">
  <defs>
    <style>
      .cls-1 {
        fill: #fff;
        stroke: #fff;
        stroke-opacity: 0.2;
      }
    </style>
  </defs>
  <path class="cls-1" d="M31,29.05a2.82,2.82,0,0,0-2.07.86A2.86,2.86,0,0,0,28.07,32a2.82,2.82,0,0,0,.86,2.07,2.92,2.92,0,0,0,4.14,0A2.82,2.82,0,0,0,33.93,32a2.86,2.86,0,0,0-.86-2.07A2.82,2.82,0,0,0,31,29.05Z" transform="translate(-0.5 -0.5)"/>
  <path class="cls-1" d="M37.84,26.83a2.85,2.85,0,0,0-1.68-1.68,7.65,7.65,0,0,0-2.11-.31c-.58,0-1.38,0-2.43,0H30.38c-1.05,0-1.85,0-2.43,0a8.08,8.08,0,0,0-2.11.31,2.85,2.85,0,0,0-1.68,1.68,8,8,0,0,0-.31,2.11c0,.57,0,1.38,0,2.42v1.25c0,1,0,1.85,0,2.42a8.45,8.45,0,0,0,.31,2.11,3,3,0,0,0,1.68,1.68,8.08,8.08,0,0,0,2.11.31c.58,0,1.38,0,2.43,0h1.24c1.07,0,1.88,0,2.43,0a7.65,7.65,0,0,0,2.11-.31,3,3,0,0,0,1.68-1.68A8.45,8.45,0,0,0,38.15,35c0-.57,0-1.38,0-2.42V31.36c0-1.07,0-1.88,0-2.42A8,8,0,0,0,37.84,26.83Zm-3,7.42a4.52,4.52,0,0,1-1.64,1.64,4.4,4.4,0,0,1-2.23.59,4.63,4.63,0,0,1-2.27-.59,5,5,0,0,1-1.64-1.64A4.59,4.59,0,0,1,26.51,32a4.35,4.35,0,0,1,.58-2.22,4.52,4.52,0,0,1,1.64-1.64A4.37,4.37,0,0,1,31,27.49a4.15,4.15,0,0,1,2.23.63,4.11,4.11,0,0,1,1.64,1.64A4.2,4.2,0,0,1,35.49,32,4.43,4.43,0,0,1,34.87,34.25ZM36.39,28a.88.88,0,0,1-.7.31A1,1,0,0,1,35,28a1.06,1.06,0,0,1,.74-1.8,1.05,1.05,0,0,1,.74.31,1,1,0,0,1,.31.75A1.15,1.15,0,0,1,36.39,28Z" transform="translate(-0.5 -0.5)"/>
  <path class="cls-1" d="M31,1A30,30,0,1,0,61,31,30,30,0,0,0,31,1Zm8.67,34.66a6.75,6.75,0,0,1-.31,1.91,4.8,4.8,0,0,1-1.09,1.72,4.43,4.43,0,0,1-1.68,1.05,6.86,6.86,0,0,1-2,.32c-.73.05-1.94.07-3.63.07s-2.92,0-3.67-.07a6.08,6.08,0,0,1-1.92-.36,4.25,4.25,0,0,1-1.71-1,5,5,0,0,1-1.06-1.72,7.93,7.93,0,0,1-.35-1.91c0-.76,0-2,0-3.68s0-2.9,0-3.63a7.92,7.92,0,0,1,.35-2,4.64,4.64,0,0,1,2.77-2.78,7.14,7.14,0,0,1,1.92-.31c.75,0,2-.08,3.67-.08s2.9,0,3.63.08a7.25,7.25,0,0,1,2,.31,4.31,4.31,0,0,1,1.68,1.1,4.4,4.4,0,0,1,1.09,1.68,7.92,7.92,0,0,1,.35,2c0,.73,0,1.94,0,3.63S39.72,34.9,39.67,35.66Z" transform="translate(-0.5 -0.5)"/>
</svg>
