<svg id="Слой_1" data-name="Слой 1" xmlns="http://www.w3.org/2000/svg" viewBox="0 0 61 61">
  <defs>
    <style>
      .cls-1 {
        fill: #fff;
        stroke: #fff;
        stroke-opacity: 0.2;
      }
    </style>
  </defs>
  <path class="cls-1" d="M31,1A30,30,0,1,0,61,31,30,30,0,0,0,31,1Zm7.93,26.92a2.11,2.11,0,0,1,0,.51,11.64,11.64,0,0,1-1.37,5.43,11.14,11.14,0,0,1-3.94,4.41,11.25,11.25,0,0,1-6.37,1.84A11.34,11.34,0,0,1,21,38.27a9.62,9.62,0,0,0,1,0,8.07,8.07,0,0,0,5.11-1.76,4,4,0,0,1-2.42-.78,4.16,4.16,0,0,1-1.4-2,6.34,6.34,0,0,0,.74,0,5.06,5.06,0,0,0,1.09-.12,4.08,4.08,0,0,1-2.34-1.44,3.93,3.93,0,0,1-.94-2.58v-.08a3.9,3.9,0,0,0,1.84.55,4.54,4.54,0,0,1-1.33-1.49,3.86,3.86,0,0,1-.51-1.95,4,4,0,0,1,.59-2.07,11.31,11.31,0,0,0,3.71,3,11.59,11.59,0,0,0,4.72,1.25,6,6,0,0,1-.07-.94,4.15,4.15,0,0,1,2-3.55,4,4,0,0,1,3.67-.2,4.52,4.52,0,0,1,1.37.94,8.23,8.23,0,0,0,2.61-1,4.1,4.1,0,0,1-1.79,2.27A9,9,0,0,0,41,25.77,8.81,8.81,0,0,1,38.93,27.92Z" transform="translate(-0.5 -0.5)"/>
</svg>
